<svg width="512" height="512" viewBox="0 0 512 512" fill="none" xmlns="http://www.w3.org/2000/svg">
<path d="M235.965 18.4142C248.469 11.1953 263.875 11.1953 276.379 18.4142L451.793 119.692C464.297 126.911 472 140.251 472 154.69V357.24L471.977 358.591C471.513 372.507 463.906 385.246 451.793 392.239L276.379 493.517L275.198 494.171C263.311 500.516 249.033 500.516 237.146 494.171L235.965 493.517L60.5508 392.239C48.0471 385.02 40.3438 371.679 40.3438 357.24V154.69C40.3438 140.702 47.5728 127.744 59.3926 120.385L60.5508 119.692L235.965 18.4142ZM102.213 363.982L101.758 364.236C100.018 365.183 98.1974 365.845 96.3496 366.242L236.941 447.413C236.359 445.611 236.022 443.699 235.972 441.715L235.965 441.193V286.759L102.213 363.982ZM276.379 441.193L276.372 441.715C276.322 443.699 275.984 445.611 275.401 447.413L415.988 366.245C413.975 365.814 411.993 365.067 410.114 363.982L276.379 286.769V441.193ZM431.587 173.754C431.18 174.03 430.761 174.294 430.329 174.543L296.576 251.765L430.321 328.983C430.756 329.234 431.178 329.499 431.587 329.776V173.754ZM80.7568 329.765C81.0184 329.588 81.2854 329.416 81.5576 329.249L82.0059 328.983L215.749 251.765L81.998 174.543L81.5498 174.276C81.2801 174.112 81.0161 173.94 80.7568 173.765V329.765ZM104.597 140.925L235.965 216.771V65.0802L104.597 140.925ZM276.379 216.761L407.738 140.92L276.379 65.0802V216.761Z" fill="white"/>
</svg>
